<?xml version="1.0" standalone="no"?><svg xmlns="http://www.w3.org/2000/svg" viewBox="0 0 1440 320"><path fill="#5000ca" fill-opacity="0.7" d="M0,224L0,128L36.9,128L36.9,64L73.8,64L73.8,160L110.8,160L110.8,32L147.7,32L147.7,64L184.6,64L184.6,192L221.5,192L221.5,288L258.5,288L258.5,256L295.4,256L295.4,288L332.3,288L332.3,288L369.2,288L369.2,96L406.2,96L406.2,224L443.1,224L443.1,256L480,256L480,96L516.9,96L516.9,128L553.8,128L553.8,320L590.8,320L590.8,128L627.7,128L627.7,128L664.6,128L664.6,192L701.5,192L701.5,0L738.5,0L738.5,128L775.4,128L775.4,288L812.3,288L812.3,96L849.2,96L849.2,224L886.2,224L886.2,256L923.1,256L923.1,224L960,224L960,0L996.9,0L996.9,288L1033.8,288L1033.8,224L1070.8,224L1070.8,64L1107.7,64L1107.7,64L1144.6,64L1144.6,224L1181.5,224L1181.5,224L1218.5,224L1218.5,288L1255.4,288L1255.4,64L1292.3,64L1292.3,224L1329.2,224L1329.2,64L1366.2,64L1366.2,128L1403.1,128L1403.1,288L1440,288L1440,320L1403.1,320L1403.1,320L1366.2,320L1366.2,320L1329.2,320L1329.2,320L1292.3,320L1292.3,320L1255.4,320L1255.4,320L1218.5,320L1218.5,320L1181.5,320L1181.5,320L1144.6,320L1144.6,320L1107.7,320L1107.7,320L1070.8,320L1070.8,320L1033.8,320L1033.8,320L996.9,320L996.9,320L960,320L960,320L923.1,320L923.1,320L886.2,320L886.2,320L849.2,320L849.2,320L812.3,320L812.3,320L775.4,320L775.4,320L738.5,320L738.5,320L701.5,320L701.5,320L664.6,320L664.6,320L627.7,320L627.7,320L590.8,320L590.8,320L553.8,320L553.8,320L516.9,320L516.9,320L480,320L480,320L443.1,320L443.1,320L406.2,320L406.2,320L369.2,320L369.2,320L332.3,320L332.3,320L295.4,320L295.4,320L258.5,320L258.5,320L221.5,320L221.5,320L184.6,320L184.6,320L147.7,320L147.7,320L110.8,320L110.8,320L73.8,320L73.8,320L36.9,320L36.9,320L0,320L0,320Z"></path></svg>